<svg xmlns="http://www.w3.org/2000/svg" viewBox="0 0 600 600" role="img" aria-labelledby="t d"><title id="t">蛋挞</title><desc id="d">戴着小花的暖橘色校园猫</desc>
<rect width="600" height="600" fill="#f7dfc0"/><circle cx="80" cy="88" r="34" fill="#ef9b82" opacity=".35"/><circle cx="520" cy="500" r="74" fill="#fff3df"/>
<path d="M87 490c104-56 310-53 425 0" fill="none" stroke="#8ea58c" stroke-width="10" stroke-linecap="round"/>
<path d="M188 224 168 99l102 78M412 224l20-125-102 78" fill="#d98a50" stroke="#49352d" stroke-width="10" stroke-linejoin="round"/><path d="m190 137 46 43-55-61m229 18-46 43 55-61" fill="none" stroke="#e9a394" stroke-width="18"/>
<ellipse cx="300" cy="295" rx="153" ry="137" fill="#d98a50" stroke="#49352d" stroke-width="10"/><path d="M205 374c-37 43-46 114-31 152h252c15-69-13-128-46-153" fill="#d98a50" stroke="#49352d" stroke-width="10"/>
<path d="M232 277q20 24 40 0m56 0q20 24 40 0" fill="none" stroke="#49352d" stroke-width="10" stroke-linecap="round"/><path d="m291 307 18 0-9 12z" fill="#a9584c"/><path d="M300 318q-4 25-28 21m28-21q4 25 28 21" fill="none" stroke="#49352d" stroke-width="6" stroke-linecap="round"/>
<path d="M230 229q70 34 140 0" fill="none" stroke="#a86340" stroke-width="17" stroke-linecap="round"/><g transform="translate(399 174)"><circle r="29" fill="#fff8e5"/><circle cx="28" r="29" fill="#fff8e5"/><circle cx="14" cy="-25" r="29" fill="#fff8e5"/><circle cx="14" cy="10" r="14" fill="#e89875"/></g>
<path d="M424 410q105-39 77 81" fill="none" stroke="#49352d" stroke-width="38" stroke-linecap="round"/><path d="M424 410q105-39 77 81" fill="none" stroke="#d98a50" stroke-width="25" stroke-linecap="round"/>
</svg>
